<?xml version="1.0" encoding="utf-8"?>
<!-- Generator: Adobe Illustrator 15.0.0, SVG Export Plug-In  -->
<!DOCTYPE svg PUBLIC "-//W3C//DTD SVG 1.1//EN" "http://www.w3.org/Graphics/SVG/1.1/DTD/svg11.dtd" [
	<!ENTITY ns_flows "http://ns.adobe.com/Flows/1.0/">
]>
<svg version="1.1"
	 xmlns="http://www.w3.org/2000/svg" xmlns:xlink="http://www.w3.org/1999/xlink" xmlns:a="http://ns.adobe.com/AdobeSVGViewerExtensions/3.0/"
	 x="0px" y="0px" width="8px" height="8px" viewBox="151.273 123.639 8 8" enable-background="new 151.273 123.639 8 8"
	 xml:space="preserve">
<defs>
</defs>
<rect display="none" fill="#E0E0E0" width="2229.455" height="1311.244"/>
<rect x="151.273" y="123.639" display="none" fill="#C9C9C9" width="8" height="8"/>
<g>
	<g>
		<g>
			<path fill="#FFFFFF" d="M158.272,125.791c-0.099-0.114-0.232-0.152-0.365-0.152l-4.986,0.023
				c-0.133-0.001-0.266,0.037-0.365,0.15c-0.201,0.226-0.202,0.566-0.002,0.794l2.486,2.841c0.033,0.04,0.099,0.077,0.132,0.115
				l0.034,0.038c0.166,0.076,0.399,0.039,0.532-0.112l2.499-2.867C158.472,126.357,158.438,126.018,158.272,125.791L158.272,125.791
				z M158.272,125.791"/>
		</g>
	</g>
</g>
</svg>
