<?xml version="1.0" encoding="utf-8"?>
<!-- Generator: Adobe Illustrator 15.0.0, SVG Export Plug-In  -->
<!DOCTYPE svg PUBLIC "-//W3C//DTD SVG 1.1//EN" "http://www.w3.org/Graphics/SVG/1.1/DTD/svg11.dtd" [
	<!ENTITY ns_flows "http://ns.adobe.com/Flows/1.0/">
]>
<svg version="1.1"
	 xmlns="http://www.w3.org/2000/svg" xmlns:xlink="http://www.w3.org/1999/xlink" xmlns:a="http://ns.adobe.com/AdobeSVGViewerExtensions/3.0/"
	 x="0px" y="0px" width="18px" height="18px" viewBox="308.273 119.639 18 18" enable-background="new 308.273 119.639 18 18"
	 xml:space="preserve">
<defs>
</defs>
<rect display="none" fill="#E0E0E0" width="2229.455" height="1311.244"/>
<rect x="308.273" y="119.639" display="none" fill="#C9C9C9" width="18" height="18"/>
<g>
	<g>
		<g>
			<path fill="#FFFFFF" d="M316.649,124.261c0.23-0.028,0.458-0.043,0.686-0.044v1.127c0,0.115,0.132,0.179,0.223,0.108l2.263-1.784
				c0.071-0.057,0.071-0.163,0-0.218l-2.261-1.782c-0.09-0.07-0.223-0.007-0.223,0.108l-0.003,1.129
				c-2.096,0.009-4.166,0.942-5.559,2.721c-1.229,1.574-1.69,3.505-1.433,5.337h1.323c-0.016-0.094-0.03-0.189-0.042-0.284
				c-0.09-0.743-0.037-1.484,0.157-2.202c0.202-0.745,0.548-1.432,1.026-2.044c0.48-0.612,1.065-1.115,1.739-1.487
				C315.199,124.582,315.904,124.353,316.649,124.261L316.649,124.261z M323.708,127.204h-9.328c-0.313,0-0.565,0.252-0.565,0.564
				v7.306c0,0.313,0.252,0.564,0.565,0.564h9.328c0.313,0,0.565-0.252,0.565-0.564v-7.306
				C324.273,127.456,324.021,127.204,323.708,127.204L323.708,127.204z M322.93,134.298h-7.773v-5.753h7.773V134.298z
				 M322.93,134.298"/>
		</g>
	</g>
</g>
</svg>
