<?xml version="1.0" encoding="utf-8"?>
<!-- Generator: Adobe Illustrator 15.0.0, SVG Export Plug-In  -->
<!DOCTYPE svg PUBLIC "-//W3C//DTD SVG 1.1//EN" "http://www.w3.org/Graphics/SVG/1.1/DTD/svg11.dtd" [
	<!ENTITY ns_flows "http://ns.adobe.com/Flows/1.0/">
]>
<svg version="1.1"
	 xmlns="http://www.w3.org/2000/svg" xmlns:xlink="http://www.w3.org/1999/xlink" xmlns:a="http://ns.adobe.com/AdobeSVGViewerExtensions/3.0/"
	 x="0px" y="0px" width="18px" height="18px" viewBox="284.273 119.639 18 18" enable-background="new 284.273 119.639 18 18"
	 xml:space="preserve">
<defs>
</defs>
<rect display="none" fill="#E0E0E0" width="2229.455" height="1311.244"/>
<rect x="284.273" y="119.639" display="none" fill="#C9C9C9" width="18" height="18"/>
<g>
	<g>
		<g>
			<path fill="#FFFFFF" d="M296.168,127.205h-9.33c-0.313,0-0.565,0.252-0.565,0.564v7.305c0,0.313,0.252,0.564,0.565,0.564h9.33
				c0.313,0,0.566-0.252,0.566-0.564v-7.305C296.734,127.457,296.481,127.205,296.168,127.205L296.168,127.205z M295.391,134.298
				h-7.775v-5.752h7.775V134.298z M298.771,125.626c-1.393-1.776-3.464-2.71-5.56-2.721l-0.003-1.129
				c0-0.115-0.134-0.179-0.223-0.107l-2.262,1.781c-0.07,0.055-0.069,0.161,0,0.218l2.264,1.783c0.09,0.07,0.225,0.008,0.223-0.107
				v-1.127c0.228,0.002,0.458,0.016,0.686,0.044c0.744,0.092,1.451,0.32,2.104,0.683c0.673,0.374,1.257,0.877,1.739,1.487
				c0.478,0.612,0.825,1.301,1.026,2.043c0.194,0.718,0.247,1.46,0.157,2.202c-0.012,0.095-0.025,0.19-0.042,0.284h1.323
				C300.464,129.132,300.002,127.201,298.771,125.626L298.771,125.626z M298.771,125.626"/>
		</g>
	</g>
</g>
</svg>
