<?xml version="1.0" encoding="utf-8"?>
<!-- Generator: Adobe Illustrator 15.0.0, SVG Export Plug-In  -->
<!DOCTYPE svg PUBLIC "-//W3C//DTD SVG 1.1//EN" "http://www.w3.org/Graphics/SVG/1.1/DTD/svg11.dtd" [
	<!ENTITY ns_flows "http://ns.adobe.com/Flows/1.0/">
]>
<svg version="1.1"
	 xmlns="http://www.w3.org/2000/svg" xmlns:xlink="http://www.w3.org/1999/xlink" xmlns:a="http://ns.adobe.com/AdobeSVGViewerExtensions/3.0/"
	 x="0px" y="0px" width="42px" height="42px" viewBox="414.273 229.639 42 42" enable-background="new 414.273 229.639 42 42"
	 xml:space="preserve">
<defs>
</defs>
<rect display="none" fill="#E0E0E0" width="2229.455" height="1311.244"/>
<rect x="414.273" y="229.639" display="none" fill="#C9C9C9" width="42" height="42"/>
<circle fill="#FFFFFF" stroke="#F2F2F2" stroke-width="0.9757" stroke-miterlimit="10" cx="435.273" cy="250.639" r="17"/>
<path fill="#BBBBBB" d="M440.794,245.156c-0.247-0.008-0.485,0.092-0.653,0.272c-0.168,0.17-0.261,0.399-0.259,0.639v9.143
	c-0.008,0.244,0.085,0.481,0.258,0.654c0.172,0.174,0.409,0.268,0.654,0.26c0.244,0.008,0.481-0.086,0.654-0.26
	c0.173-0.173,0.266-0.41,0.257-0.654v-9.145c0.007-0.244-0.087-0.48-0.259-0.653c-0.173-0.173-0.41-0.267-0.654-0.258v0.002H440.794
	z M429.796,245.156c-0.242-0.001-0.472,0.098-0.638,0.272c-0.175,0.166-0.274,0.397-0.272,0.639v9.143
	c-0.008,0.244,0.085,0.48,0.257,0.653c0.173,0.173,0.409,0.268,0.653,0.261c0.245,0.009,0.481-0.085,0.655-0.259
	c0.173-0.173,0.267-0.41,0.259-0.655v-9.145c0.001-0.238-0.092-0.468-0.26-0.637C430.281,245.248,430.043,245.148,429.796,245.156
	L429.796,245.156z M435.294,246.979c-0.246,0.013-0.478,0.114-0.653,0.288c-0.172,0.173-0.266,0.409-0.258,0.653v0.912
	c0,0.238,0.098,0.468,0.269,0.634c0.172,0.166,0.404,0.256,0.643,0.249c0.24,0.007,0.471-0.083,0.643-0.249
	c0.172-0.166,0.27-0.396,0.27-0.634v-0.912c0.007-0.247-0.092-0.485-0.272-0.653C435.761,247.1,435.536,246.997,435.294,246.979
	L435.294,246.979z M435.294,251.566c-0.244-0.008-0.481,0.085-0.654,0.258s-0.267,0.41-0.259,0.654v0.912
	c-0.007,0.244,0.086,0.481,0.259,0.653c0.173,0.173,0.411,0.267,0.654,0.258c0.245,0.008,0.481-0.085,0.653-0.258
	c0.173-0.173,0.267-0.409,0.259-0.653v-0.912c0.001-0.241-0.098-0.472-0.272-0.638c-0.167-0.175-0.398-0.273-0.64-0.272V251.566z
	 M435.294,251.566"/>
</svg>
